<svg xmlns="http://www.w3.org/2000/svg" width="512" height="512" viewBox="0 0 512 512" version="1.1">
	<path d="M 0 256.002 L 0 512.004 256.250 511.752 L 512.500 511.500 512.752 255.750 L 513.004 0 256.502 0 L 0 0 0 256.002 M 0.492 256.500 C 0.492 397.300, 0.608 454.751, 0.750 384.170 C 0.892 313.588, 0.892 198.388, 0.750 128.170 C 0.608 57.951, 0.492 115.700, 0.492 256.500 M 207.146 152.280 L 193.791 160.389 189.081 157.741 L 184.370 155.093 172.435 162.156 C 156.789 171.416, 156.983 171.208, 161.418 173.949 C 163.388 175.167, 164.996 176.464, 164.991 176.832 C 164.986 177.199, 155.029 183.529, 142.865 190.899 L 120.748 204.297 124.383 206.491 C 129.612 209.647, 129.613 209.564, 124.329 212.579 C 121.673 214.095, 117.754 216.342, 115.621 217.573 L 111.741 219.812 116.056 222.535 L 120.371 225.259 116.160 227.746 C 111.573 230.455, 111.662 231.218, 116.923 234.307 L 120 236.113 120 231.557 C 120 229.050, 120.433 227, 120.963 227 C 121.493 227, 127.905 230.754, 135.213 235.342 C 142.521 239.930, 151.988 245.812, 156.250 248.413 C 160.512 251.014, 164 253.477, 164 253.887 C 164 254.297, 162.170 255.660, 159.934 256.917 C 157.698 258.174, 156.011 259.328, 156.184 259.481 C 156.358 259.635, 164.542 264.731, 174.372 270.806 L 192.244 281.852 196.824 279.001 C 201.315 276.206, 201.453 276.186, 203.952 277.944 C 205.353 278.930, 211.367 282.707, 217.317 286.339 L 228.133 292.941 232.047 290.471 C 236.901 287.406, 237.661 287.405, 242.149 290.455 L 245.762 292.910 250.656 290.300 L 255.550 287.691 259.764 290.351 L 263.978 293.011 268.754 290.345 L 273.530 287.678 277.838 290.398 L 282.145 293.117 293.823 286.245 C 300.245 282.466, 306.442 278.775, 307.593 278.044 C 309.433 276.876, 310.157 277.035, 313.575 279.357 C 315.714 280.811, 317.836 282, 318.290 282 C 318.744 282, 327.194 277.163, 337.068 271.250 C 354.387 260.879, 354.942 260.447, 352.814 259 C 345.886 254.288, 344.663 255.649, 368.881 241.116 C 381.047 233.816, 391 227.660, 391 227.434 C 391 227.209, 389.137 225.849, 386.861 224.412 L 382.722 221.799 386.533 219.650 C 388.629 218.467, 390.510 216.995, 390.713 216.379 C 390.915 215.762, 387.575 213.108, 383.290 210.482 C 379.006 207.855, 375.050 205.189, 374.500 204.558 C 373.016 202.854, 356.628 193, 355.277 193 C 354.638 193, 352.486 192.039, 350.496 190.865 L 346.878 188.730 350.939 186.308 C 355.293 183.712, 355.909 182.563, 353.453 181.620 C 352.602 181.294, 344.762 176.551, 336.031 171.081 L 320.155 161.134 315.315 163.715 L 310.475 166.296 297.199 158.160 L 283.924 150.023 279.982 152.511 C 275.105 155.590, 274.846 155.588, 270.088 152.439 L 266.218 149.879 261.337 152.604 L 256.455 155.330 252.289 152.573 L 248.123 149.816 243.266 152.546 L 238.409 155.276 229.670 149.638 C 224.863 146.537, 220.834 144.039, 220.715 144.086 C 220.597 144.133, 214.491 147.820, 207.146 152.280 M 228.373 183.498 C 221.418 187.636, 219.132 189.531, 218.762 191.464 C 218.496 192.859, 218.598 194, 218.990 194 C 219.588 194, 219.694 197.903, 219.157 200.157 C 219.070 200.518, 215.063 203.443, 210.250 206.657 C 205.438 209.870, 201.275 212.749, 201 213.053 C 200.725 213.357, 198.813 214.631, 196.750 215.884 C 193.554 217.826, 193 218.685, 193 221.697 C 193 225.124, 193.068 225.186, 195.250 223.780 C 196.488 222.983, 202.675 219.258, 209 215.503 C 215.325 211.748, 222.151 207.588, 224.168 206.259 C 227.114 204.317, 228.233 204.054, 229.852 204.921 C 232.354 206.260, 234.046 206.322, 232 205 C 230.718 204.172, 230.754 204.028, 232.250 204.015 C 233.213 204.007, 234 204.506, 234 205.125 C 234 205.838, 235.083 206.033, 236.961 205.658 C 241.071 204.836, 241.703 206.585, 237.990 208.505 C 234.693 210.210, 232.989 213.396, 232.375 219 C 231.690 225.256, 231.045 226.454, 226.613 229.689 C 222.885 232.411, 222.145 233.550, 221.558 237.459 C 221.113 240.426, 220.482 241.798, 219.766 241.355 C 219.064 240.921, 218.881 241.249, 219.267 242.253 C 219.895 243.889, 218.222 245, 215.131 245 C 214.136 245, 213.362 245.843, 213.273 247.022 C 213.190 248.134, 213.531 248.790, 214.031 248.481 C 215.601 247.511, 221.215 250.997, 220.612 252.568 C 220.289 253.410, 220.668 254, 221.531 254 C 222.339 254, 223 254.372, 223 254.827 C 223 255.282, 224.350 255.455, 226 255.213 C 227.650 254.971, 229 254.388, 229 253.918 C 229 253.448, 228.325 253.322, 227.500 253.638 C 226.675 253.955, 226 253.756, 226 253.195 C 226 252.104, 228.499 252.166, 229.619 253.285 C 229.991 253.658, 232.029 252.988, 234.148 251.797 C 237.835 249.725, 237.999 249.415, 237.968 244.566 C 237.938 239.723, 236.652 236.571, 234.500 236.067 C 232.521 235.604, 232.710 235, 234.833 235 C 236.025 235, 237 235.450, 237 236 C 237 236.550, 237.702 237, 238.559 237 C 239.540 237, 239.840 236.537, 239.367 235.750 C 238.857 234.901, 239.158 234.940, 240.308 235.872 C 241.646 236.958, 242 236.975, 242 235.956 C 242 235.247, 242.284 234.951, 242.631 235.298 C 242.979 235.645, 244.104 235.480, 245.131 234.930 C 246.592 234.148, 247 232.783, 247 228.680 C 247 223.902, 246.730 223.271, 243.982 221.649 C 239.834 219.198, 240.874 218.329, 247.176 218.981 C 250.808 219.357, 252.414 219.945, 252.228 220.831 C 252.079 221.546, 252.893 223.445, 254.037 225.052 L 256.117 227.973 259.309 225.740 C 261.064 224.512, 262.718 223.362, 262.985 223.185 C 263.252 223.008, 262.352 221.987, 260.985 220.915 L 258.500 218.967 261 219.838 C 263.794 220.813, 266.300 220.725, 269.992 219.523 C 272.226 218.796, 272.343 218.882, 271.120 220.356 C 270.369 221.260, 270.156 222, 270.646 222 C 271.136 222, 272.311 223.238, 273.257 224.750 C 274.856 227.307, 275.017 227.360, 275.561 225.500 C 275.882 224.400, 278.183 222.252, 280.673 220.726 C 283.162 219.201, 285.437 217.045, 285.727 215.937 C 286.017 214.828, 287.848 213.255, 289.795 212.441 L 293.336 210.962 289.918 208.423 C 288.038 207.027, 284.925 204.946, 283 203.800 C 273.797 198.319, 267 193.682, 267 192.883 C 267 192.397, 270.178 192, 274.062 192 C 280.977 192, 281.357 192.138, 292.312 198.633 C 298.465 202.281, 306.920 207.456, 311.100 210.133 C 315.280 212.810, 319.105 214.998, 319.600 214.996 C 320.095 214.994, 322.036 214.056, 323.913 212.912 L 327.326 210.831 317.915 204.787 C 312.739 201.462, 300.913 193.991, 291.635 188.184 L 274.765 177.626 270.132 180.226 L 265.500 182.826 261.119 180.234 L 256.737 177.642 252.111 180.242 L 247.484 182.843 243.492 180.427 C 241.297 179.098, 239.050 178.023, 238.500 178.040 C 237.950 178.056, 233.393 180.512, 228.373 183.498 M 252.500 205.418 C 257.259 208.478, 257.258 208.478, 259.274 206.250 C 260.757 204.610, 260.594 204.496, 256.679 204.433 C 254.380 204.396, 251.600 204.024, 250.500 203.606 C 249.400 203.189, 250.300 204.004, 252.500 205.418 M 120.597 217.607 C 119.665 220.037, 119.895 223.817, 121.018 224.511 C 121.578 224.857, 123.643 224.148, 125.607 222.934 C 129.392 220.594, 129.354 220.475, 123.847 217.488 C 121.505 216.217, 121.125 216.231, 120.597 217.607 M 318.079 220.583 C 318.127 221.748, 318.364 221.985, 318.683 221.188 C 318.972 220.466, 318.936 219.603, 318.604 219.271 C 318.272 218.939, 318.036 219.529, 318.079 220.583 M 295.500 228.137 C 294.400 228.774, 293.308 229.458, 293.073 229.658 C 292.393 230.236, 296.241 233.399, 299.250 234.736 C 300.762 235.407, 302 236.417, 302 236.979 C 302 237.540, 302.337 237.904, 302.750 237.788 C 304.629 237.255, 308.164 240.266, 307.707 242.011 C 307.375 243.281, 307.656 243.686, 308.613 243.318 C 309.554 242.957, 310 241.083, 310 237.492 C 310 232.460, 309.819 232.091, 306.349 230.044 C 301.713 227.308, 298.044 226.663, 295.500 228.137 M 391.609 236.725 C 391.274 237.059, 391 239.654, 391 242.491 L 391 247.649 373 258.472 L 355 269.296 355 274.526 C 355 278.149, 354.496 280.177, 353.359 281.128 C 351.035 283.072, 326.487 297.483, 320.500 300.418 C 315.040 303.094, 306.444 304.265, 303.880 302.682 C 302.646 301.920, 300.038 302.881, 292.919 306.725 C 287.781 309.499, 283.453 312.158, 283.302 312.634 C 282.996 313.597, 289.355 318, 291.051 318 C 291.645 318, 296.022 315.702, 300.778 312.892 C 308.422 308.378, 309.662 307.934, 311.463 309.070 C 318.911 313.769, 316.599 314.436, 338.519 301.271 C 349.508 294.672, 361.837 287.347, 365.916 284.995 L 373.332 280.718 369.166 278.257 C 366.875 276.904, 365 275.476, 365 275.084 C 365 274.692, 372.900 269.677, 382.555 263.939 C 401.738 252.539, 400.975 253.540, 394.008 248.919 L 391.625 247.339 395.812 244.985 C 398.116 243.691, 400 242.324, 400 241.949 C 400 240.858, 392.281 236.052, 391.609 236.725 M 125.235 244.266 C 122.889 245.445, 121.093 246.779, 121.244 247.232 C 121.395 247.685, 123.344 249.144, 125.574 250.474 L 129.630 252.893 133.941 250.039 L 138.253 247.185 134.146 244.592 C 131.888 243.167, 129.918 242.028, 129.770 242.062 C 129.621 242.096, 127.581 243.088, 125.235 244.266 M 211 246.559 C 211 247.416, 211.457 247.835, 212.016 247.490 C 212.575 247.144, 212.774 246.443, 212.457 245.931 C 211.600 244.544, 211 244.802, 211 246.559 M 115.678 249.412 L 111.856 251.761 114.678 253.717 C 119.944 257.366, 119.888 257.384, 119.847 252.024 C 119.826 249.261, 119.739 247.014, 119.654 247.031 C 119.569 247.048, 117.780 248.120, 115.678 249.412 M 144 262.856 C 144 263.345, 141.077 263.644, 137.505 263.520 L 131.009 263.294 133.891 265.397 C 135.477 266.554, 139.065 268.850, 141.867 270.500 C 144.668 272.150, 146.966 273.725, 146.972 274 C 146.978 274.275, 145.156 275.492, 142.922 276.705 L 138.860 278.911 134.780 275.955 C 132.536 274.330, 130.317 273, 129.850 273 C 129.382 273, 129 275.025, 129 277.500 C 129 279.975, 128.732 282, 128.404 282 C 128.077 282, 126.614 281.174, 125.154 280.164 C 123.694 279.154, 121.938 278.003, 121.250 277.605 C 120.273 277.040, 120 280.280, 120 292.466 L 120 308.049 124.500 310.767 C 128.991 313.480, 129 313.496, 129 319.201 L 129 324.916 133.500 327.553 C 137.913 330.139, 138 330.290, 138 335.360 L 138 340.531 156.250 351.772 C 166.287 357.955, 178.373 365.445, 183.108 368.418 L 191.715 373.822 195.960 371.411 C 198.294 370.085, 200.581 369, 201.042 369 C 201.503 369, 205.619 371.249, 210.190 373.998 C 214.760 376.747, 218.847 378.997, 219.271 378.998 C 219.696 378.999, 221.784 380.152, 223.912 381.561 L 227.782 384.121 232.663 381.396 L 237.545 378.670 241.663 381.396 L 245.782 384.121 250.684 381.384 L 255.587 378.647 259.525 381.324 C 261.692 382.796, 263.819 384, 264.254 384 C 264.688 384, 266.820 382.824, 268.991 381.387 L 272.939 378.774 277.634 381.525 C 281.092 383.552, 282.745 384.017, 283.914 383.291 C 284.786 382.748, 289.100 380.368, 293.500 378.001 C 297.900 375.634, 303.120 372.677, 305.100 371.431 L 308.701 369.164 313.675 371.711 L 318.649 374.259 345.824 357.940 L 373 341.621 373 336.553 C 373 331.616, 373.116 331.415, 377.500 328.767 C 381.949 326.080, 382 325.987, 382 320.610 L 382 315.172 386.972 312.112 L 391.943 309.053 391.319 294.594 L 390.694 280.135 395.347 277.325 C 397.906 275.779, 400 274.158, 400 273.722 C 400 273.286, 397.946 272.048, 395.435 270.972 C 391.331 269.213, 390.599 269.163, 388.185 270.471 C 382.439 273.586, 382.417 273.639, 385.743 276.437 L 388.837 279.040 387.159 283.804 C 386.236 286.424, 384.536 289.866, 383.381 291.452 L 381.280 294.336 377.772 292.168 C 375.842 290.976, 373.980 290, 373.632 290 C 373.284 290, 373 292.247, 373 294.992 C 373 299.878, 372.894 300.054, 368.018 303.242 L 363.036 306.500 363.018 316.730 L 363 326.959 359 329 L 355 331.041 355 326.008 L 355 320.975 351.020 323.487 C 348.831 324.869, 346.806 326, 346.520 326 C 346.234 326, 346 323.975, 346 321.500 C 346 319.025, 345.720 317, 345.378 317 C 345.037 317, 339.256 320.375, 332.532 324.500 C 325.808 328.625, 320.065 332, 319.769 332 C 319.473 332, 318.921 329.525, 318.543 326.500 C 318.165 323.475, 317.718 321, 317.550 321 C 317.382 321, 315.694 321.648, 313.799 322.440 C 310.750 323.714, 309.831 323.691, 305.813 322.247 C 302.257 320.968, 300.214 320.818, 296.386 321.557 L 291.500 322.500 291 330.500 C 290.514 338.270, 290.428 338.497, 288 338.392 C 286.625 338.332, 285.050 338.168, 284.500 338.026 C 283.950 337.885, 282.663 337.858, 281.641 337.966 C 280.600 338.076, 280.058 337.715, 280.410 337.146 C 280.831 336.464, 279.963 336.437, 277.776 337.064 C 275.981 337.579, 274.285 338.012, 274.007 338.027 C 273.728 338.042, 275.072 339.357, 276.994 340.950 C 278.915 342.543, 280.265 343.995, 279.994 344.176 C 279.722 344.358, 278.125 345.467, 276.444 346.640 L 273.387 348.774 269.558 345.918 L 265.728 343.063 268.858 341.281 C 272.086 339.444, 273.232 337.313, 270.410 338.396 C 269.535 338.732, 268.343 338.712, 267.761 338.352 C 266.009 337.270, 258.950 336.929, 257.309 337.847 C 256.053 338.550, 256.355 339.117, 258.984 340.988 L 262.191 343.272 259.346 345.600 C 255.758 348.535, 255.114 348.535, 251.142 345.605 L 247.896 343.210 251.198 340.855 L 254.500 338.500 250 337.971 C 247.525 337.679, 244.938 337.847, 244.250 338.343 C 243.493 338.889, 243 338.868, 243 338.290 C 243 337.511, 240.688 337.351, 238 337.944 C 237.725 338.004, 239.023 339.317, 240.885 340.862 L 244.271 343.670 240.670 345.895 L 237.070 348.120 233.471 345.674 L 229.871 343.228 233.028 340.980 C 235.340 339.334, 235.838 338.518, 234.888 337.931 C 234.175 337.490, 232.965 337.480, 232.200 337.908 C 230.611 338.797, 226.221 338.167, 225.463 336.940 C 225.184 336.489, 223.660 336.571, 222.076 337.123 C 219.630 337.976, 218.389 337.668, 213.848 335.083 C 210.907 333.409, 207.185 330.976, 205.579 329.677 L 202.658 327.315 205.829 325.442 C 209.133 323.490, 209.887 322.090, 207.750 321.874 C 203.188 321.412, 195.305 321.329, 194.255 321.732 C 192.213 322.516, 192.773 323.388, 197 326 L 201 328.472 201 343.338 L 201 358.203 196.750 355.699 C 192.674 353.297, 192.488 352.973, 192.207 347.813 C 191.923 342.623, 191.756 342.338, 187.457 339.741 L 183 337.049 183 327.039 L 183 317.028 179.250 314.628 C 177.188 313.308, 171.113 309.507, 165.750 306.180 L 156 300.131 156 305.160 L 156 310.190 151.500 307.553 L 147 304.916 147 309.458 C 147 311.956, 146.617 314, 146.148 314 C 145.679 314, 143.767 312.972, 141.898 311.716 C 138.872 309.683, 138.467 308.872, 138.201 304.317 C 137.926 299.599, 137.595 298.998, 133.951 296.586 C 130.304 294.173, 130 293.618, 130 289.387 L 130 284.802 133.557 286.901 C 135.514 288.056, 137.290 289, 137.504 289 C 137.719 289, 137.823 287.220, 137.736 285.044 C 137.650 282.868, 137.832 280.835, 138.141 280.525 C 138.658 280.009, 147.734 285.388, 179.114 304.811 C 185.501 308.765, 191.360 312, 192.132 312 C 192.904 312, 195.151 310.902, 197.125 309.561 L 200.715 307.122 209.809 312.652 L 218.904 318.182 222.952 315.907 C 225.178 314.656, 227 313.284, 227 312.860 C 227 312.044, 216.087 305.438, 209.747 302.416 C 206.115 300.684, 205.949 300.687, 204.619 302.507 C 203.364 304.222, 203.105 304.248, 201.660 302.803 C 200.643 301.786, 198.722 301.319, 196.288 301.499 C 193.017 301.740, 190.247 300.408, 176 291.744 C 166.925 286.225, 158.770 281.082, 157.878 280.316 C 156.987 279.550, 155.682 276.213, 154.979 272.903 C 153.753 267.125, 153.506 266.784, 148.851 264.424 C 146.183 263.072, 144 262.367, 144 262.856 M 230.212 312.188 C 229.310 313.090, 229.966 313.919, 233.024 315.743 L 237.013 318.121 241.006 315.876 C 243.203 314.642, 245 313.377, 245 313.065 C 245 312.753, 242.188 312.499, 238.750 312.499 C 235.313 312.500, 232.250 312.165, 231.944 311.756 C 231.639 311.346, 230.859 311.541, 230.212 312.188 M 251.408 311.784 C 251.963 312.732, 251.484 312.946, 249.580 312.600 C 246.068 311.963, 246.325 312.525, 250.944 315.581 L 254.887 318.191 258.944 315.911 C 261.175 314.658, 263 313.360, 263 313.029 C 263 312.697, 261.617 312.320, 259.928 312.191 C 257.670 312.019, 257.058 312.294, 257.620 313.229 C 258.163 314.133, 257.895 314.104, 256.692 313.128 C 255.369 312.054, 255 312.033, 255 313.033 C 255 313.876, 254.263 313.664, 252.828 312.405 C 251.634 311.357, 250.995 311.078, 251.408 311.784 M 268.500 311.998 C 267.400 312.412, 266.050 312.495, 265.500 312.183 C 264.950 311.871, 265.056 312.303, 265.735 313.143 C 266.414 313.982, 268.448 315.465, 270.254 316.437 C 273.453 318.160, 273.633 318.149, 277.269 316.004 C 280.705 313.977, 282.069 312.109, 280.250 311.923 C 279.837 311.881, 278.710 311.696, 277.745 311.511 C 276.780 311.327, 276.215 311.539, 276.489 311.983 C 276.764 312.427, 276.316 313.048, 275.494 313.364 C 274.672 313.679, 274 313.426, 274 312.802 C 274 312.178, 273.704 311.963, 273.342 312.325 C 272.980 312.687, 272.193 312.592, 271.592 312.115 C 270.991 311.638, 269.600 311.585, 268.500 311.998 M 219.028 342.750 C 219.055 346.412, 220.594 348.576, 226.250 352.905 C 227.862 354.139, 228 353.851, 228 349.255 C 228 344.547, 227.776 344.118, 224.021 341.633 C 221.833 340.185, 219.808 339, 219.521 339 C 219.235 339, 219.012 340.688, 219.028 342.750 M 283.052 344.437 C 281.447 346.371, 282.061 354.216, 283.736 353.171 C 285.081 352.331, 286.089 344.173, 284.936 343.460 C 284.546 343.219, 283.698 343.659, 283.052 344.437" stroke="none" fill="black" fill-rule="evenodd"/>
</svg>